<svg width="160" height="34" viewBox="0 0 160 34" fill="none" xmlns="http://www.w3.org/2000/svg">
<path d="M49.9303 19.6908V27.9027H45.6357V6.0957H53.8825C58.2392 6.0957 61.1338 8.95604 61.1338 12.8932C61.1338 16.8608 58.2396 19.6908 53.8825 19.6908H49.9303ZM53.353 16.0304C55.5007 16.0304 56.8077 14.8001 56.8077 12.924C56.8077 10.9864 55.5007 9.78686 53.353 9.78686H49.961V16.0304H53.353Z" fill="#FAFDFE"/>
<path d="M73.4564 26.2723C72.6161 27.6875 70.8419 28.3022 69.2237 28.3022C65.5204 28.3022 63.4043 25.6264 63.4043 22.3351V12.7695H67.5432V21.5047C67.5432 23.1963 68.4146 24.55 70.344 24.55C72.1804 24.55 73.2381 23.3197 73.2381 21.5662V12.7695H77.3774V25.1647C77.3774 26.3335 77.4708 27.3792 77.5327 27.902H73.5804C73.5182 27.5949 73.4564 26.8875 73.4564 26.2723Z" fill="#FAFDFE"/>
<path d="M84.0371 22.9214C84.1305 24.1209 85.0329 25.2281 86.8379 25.2281C88.2071 25.2281 88.8607 24.5207 88.8607 23.721C88.8607 23.044 88.3939 22.4908 87.2113 22.2444L85.1885 21.7834C82.2318 21.1371 80.894 19.3844 80.894 17.2618C80.894 14.5553 83.3213 12.3101 86.62 12.3101C90.9768 12.3101 92.4398 15.0474 92.6261 16.6775L89.1719 17.4464C89.0474 16.5544 88.3939 15.4164 86.6512 15.4164C85.562 15.4164 84.6906 16.0623 84.6906 16.9235C84.6906 17.6617 85.2508 18.123 86.0914 18.2768L88.2698 18.7381C91.2888 19.3536 92.8136 21.1679 92.8136 23.3823C92.8136 25.8428 90.8842 28.3653 86.8698 28.3653C82.2637 28.3653 80.6766 25.4123 80.4902 23.6903L84.0371 22.9214Z" fill="#FAFDFE"/>
<path d="M100.281 27.9042H96.1416V5.63623H100.281V14.0327C101.277 12.864 102.957 12.3719 104.42 12.3719C108.31 12.3719 110.115 15.0481 110.115 18.3697V27.9046H105.976V19.0771C105.976 17.3859 105.136 16.063 103.144 16.063C101.402 16.063 100.375 17.3548 100.281 19.016V27.9042H100.281Z" fill="#FAFDFE"/>
<path d="M119.265 16.2778V27.9037H115.095V16.2778H112.543V12.7711H115.095V11.0492C115.095 7.63483 117.273 5.42038 120.665 5.42038C121.536 5.42038 122.377 5.57416 122.719 5.72794V9.17304C122.501 9.11152 122.096 9.01926 121.412 9.01926C120.51 9.01926 119.265 9.41908 119.265 11.1107V12.7711H129.503V27.9037H125.396V16.2778H119.265ZM127.449 5.23584C128.85 5.23584 130.002 6.37382 130.002 7.78862C130.002 9.17304 128.85 10.2799 127.449 10.2799C126.049 10.2799 124.898 9.17265 124.898 7.78862C124.898 6.37382 126.049 5.23584 127.449 5.23584Z" fill="#FAFDFE"/>
<path d="M143.288 16.8304C142.822 16.7382 142.417 16.7074 142.044 16.7074C139.928 16.7074 138.091 17.7228 138.091 20.9829V27.9031H133.952V12.7706H137.967V15.0162C138.9 13.017 141.017 12.6479 142.323 12.6479C142.666 12.6479 142.977 12.6787 143.288 12.7095V16.8304H143.288Z" fill="#FAFDFE"/>
<path d="M159.782 23.5673C159.004 26.1816 156.577 28.3653 152.811 28.3653C148.609 28.3653 144.906 25.3815 144.906 20.276C144.906 15.4472 148.516 12.3101 152.437 12.3101C157.168 12.3101 159.999 15.2934 159.999 20.1529C159.999 20.7373 159.937 21.3524 159.937 21.4135H148.983C149.076 23.4127 150.788 24.8586 152.842 24.8586C154.772 24.8586 155.83 23.9052 156.328 22.5519L159.782 23.5673ZM155.923 18.6155C155.861 17.108 154.865 15.6317 152.499 15.6317C150.352 15.6317 149.17 17.2311 149.076 18.6155H155.923Z" fill="#FAFDFE"/>
<path d="M30.2604 0H4.14086C1.85395 0 0 1.83269 0 4.0929V29.9075C0 32.1677 1.85395 34 4.14086 34H30.2604C32.5473 34 34.4017 32.1677 34.4017 29.9075V4.0929C34.4021 1.83231 32.5473 0 30.2604 0ZM25.1525 16.9475V19.3923C25.1525 20.4338 24.2971 21.2784 23.2441 21.2784H15.5392V27.9963H13.6308H11.1572C10.1034 27.9963 9.24956 27.1517 9.24956 26.1102V21.2788V17.2036V15.3178V15.0614H11.1572H23.2441H25.1525V16.9475ZM25.1525 7.88977V10.3345C25.1525 11.376 24.2971 12.2206 23.2441 12.2206H9.24956V10.3345V7.88977C9.24956 6.84829 10.1034 6.00364 11.1572 6.00364H23.2441H25.1525V7.88977Z" fill="#FAFDFE"/>
</svg>
