<svg width="450" height="97" viewBox="0 0 450 97" fill="none" xmlns="http://www.w3.org/2000/svg">
<path d="M140.408 56.0138V79.3731H128.344V17.3418H151.51C163.75 17.3418 171.881 25.4782 171.881 36.6778C171.881 47.9638 163.751 56.0138 151.51 56.0138H140.408ZM150.023 45.6016C156.056 45.6016 159.728 42.1021 159.728 36.7653C159.728 31.2535 156.056 27.8415 150.023 27.8415H140.494V45.6016H150.023Z" fill="#FAFDFE"/>
<path d="M206.498 74.7362C204.138 78.7617 199.153 80.5104 194.608 80.5104C184.204 80.5104 178.26 72.8989 178.26 63.5366V36.3267H189.887V61.1744C189.887 65.9862 192.335 69.8368 197.755 69.8368C202.914 69.8368 205.885 66.3373 205.885 61.3494V36.3267H217.513V71.5855C217.513 74.9101 217.776 77.8847 217.949 79.372H206.847C206.672 78.4982 206.498 76.4859 206.498 74.7362Z" fill="#FAFDFE"/>
<path d="M236.222 65.2001C236.484 68.6122 239.019 71.7617 244.09 71.7617C247.936 71.7617 249.772 69.7495 249.772 67.4748C249.772 65.549 248.461 63.9753 245.139 63.2743L239.456 61.9631C231.15 60.1247 227.392 55.139 227.392 49.1012C227.392 41.4023 234.211 35.0156 243.478 35.0156C255.717 35.0156 259.827 42.8021 260.35 47.4389L250.647 49.6261C250.297 47.089 248.461 43.8519 243.565 43.8519C240.505 43.8519 238.058 45.6892 238.058 48.1389C238.058 50.2386 239.631 51.5509 241.993 51.9883L248.112 53.3007C256.593 55.0515 260.877 60.2122 260.877 66.5114C260.877 73.5104 255.457 80.6855 244.179 80.6855C231.24 80.6855 226.781 72.2856 226.258 67.3873L236.222 65.2001Z" fill="#FAFDFE"/>
<path d="M281.855 79.3729H270.227V16.0303H281.855V39.9145C284.654 36.59 289.373 35.1902 293.483 35.1902C304.411 35.1902 309.482 42.8028 309.482 52.2515V79.3739H297.854V54.2637C297.854 49.453 295.494 45.6899 289.899 45.6899C285.003 45.6899 282.118 49.3644 281.856 54.0898V79.3729H281.855Z" fill="#FAFDFE"/>
<path d="M335.184 46.3024V79.373H323.468V46.3024H316.3V36.3277H323.468V31.4294C323.468 21.7171 329.589 15.418 339.118 15.418C341.565 15.418 343.925 15.8554 344.887 16.2929V26.0926C344.275 25.9177 343.138 25.6552 341.216 25.6552C338.681 25.6552 335.183 26.7925 335.183 31.6044V36.3277H363.945V79.373H352.407V46.3024H335.184ZM358.176 14.8931C362.111 14.8931 365.346 18.1301 365.346 22.1546C365.346 26.0927 362.111 29.2411 358.176 29.2411C354.242 29.2411 351.007 26.0916 351.007 22.1546C351.007 18.1301 354.242 14.8931 358.176 14.8931Z" fill="#FAFDFE"/>
<path d="M402.673 47.8763C401.362 47.6138 400.225 47.5264 399.176 47.5264C393.231 47.5264 388.073 50.4146 388.073 59.6883V79.3732H376.445V36.3279H387.723V42.7156C390.345 37.0289 396.291 35.979 399.962 35.979C400.924 35.979 401.799 36.0665 402.672 36.154V47.8763H402.673Z" fill="#FAFDFE"/>
<path d="M449.007 67.0374C446.821 74.4739 440.002 80.6855 429.423 80.6855C417.621 80.6855 407.218 72.1981 407.218 57.6751C407.218 43.9394 417.359 35.0156 428.374 35.0156C441.663 35.0156 449.618 43.502 449.618 57.3251C449.618 58.9874 449.444 60.7371 449.444 60.911H418.67C418.932 66.5978 423.742 70.7108 429.51 70.7108C434.932 70.7108 437.904 67.9987 439.303 64.1492L449.007 67.0374ZM438.166 52.9518C437.992 48.6638 435.193 44.4643 428.549 44.4643C422.517 44.4643 419.195 49.0137 418.932 52.9518H438.166Z" fill="#FAFDFE"/>
<path d="M85.1489 0H11.773C5.34856 0 0.140381 5.2132 0.140381 11.6425V85.0736C0.140381 91.5028 5.34856 96.715 11.773 96.715H85.1489C91.5733 96.715 96.7826 91.5028 96.7826 85.0736V11.6425C96.7837 5.21211 91.5733 0 85.1489 0ZM70.7996 48.2082V55.1624C70.7996 58.125 68.3965 60.5276 65.4384 60.5276H43.7937V79.6372H38.4325H31.4835C28.5232 79.6372 26.1245 77.2346 26.1245 74.2721V60.5287V48.9365V43.5724V42.843H31.4835H65.4384H70.7996V48.2082ZM70.7996 22.4429V29.3972C70.7996 32.3597 68.3965 34.7623 65.4384 34.7623H26.1245V29.3972V22.4429C26.1245 19.4804 28.5232 17.0777 31.4835 17.0777H65.4384H70.7996V22.4429Z" fill="#FAFDFE"/>
</svg>
