<svg width="220" height="48" viewBox="0 0 220 48" fill="none" xmlns="http://www.w3.org/2000/svg">
<path d="M69.1639 28.1587V39.5337H63.2891V9.32715H74.5704C80.5303 9.32715 84.4899 13.2892 84.4899 18.7429C84.4899 24.2387 80.5308 28.1587 74.5704 28.1587H69.1639ZM73.8461 23.0884C76.784 23.0884 78.572 21.3843 78.572 18.7855C78.572 16.1016 76.784 14.44 73.8461 14.44H69.2059V23.0884H73.8461Z" fill="#FAFDFE"/>
<path d="M101.347 37.2755C100.197 39.2358 97.7704 40.0873 95.5567 40.0873C90.4908 40.0873 87.5959 36.3809 87.5959 31.8218V18.5718H93.2579V30.6715C93.2579 33.0147 94.4499 34.8898 97.0893 34.8898C99.6015 34.8898 101.048 33.1856 101.048 30.7567V18.5718H106.711V35.7413C106.711 37.3602 106.839 38.8087 106.923 39.533H101.517C101.432 39.1075 101.347 38.1276 101.347 37.2755Z" fill="#FAFDFE"/>
<path d="M115.821 32.6321C115.949 34.2937 117.183 35.8274 119.652 35.8274C121.526 35.8274 122.42 34.8475 122.42 33.7398C122.42 32.802 121.781 32.0357 120.163 31.6943L117.396 31.0558C113.351 30.1606 111.521 27.7328 111.521 24.7927C111.521 21.0436 114.842 17.9336 119.354 17.9336C125.314 17.9336 127.316 21.7252 127.571 23.9832L122.845 25.0483C122.675 23.8128 121.781 22.2365 119.397 22.2365C117.907 22.2365 116.715 23.1312 116.715 24.324C116.715 25.3465 117.481 25.9855 118.631 26.1986L121.611 26.8376C125.741 27.6902 127.827 30.2032 127.827 33.2707C127.827 36.6789 125.188 40.1729 119.696 40.1729C113.395 40.1729 111.224 36.0824 110.969 33.6972L115.821 32.6321Z" fill="#FAFDFE"/>
<path d="M138.043 39.5336H132.38V8.68848H138.043V20.3191C139.405 18.7002 141.704 18.0185 143.705 18.0185C149.026 18.0185 151.496 21.7255 151.496 26.3266V39.5341H145.834V27.3065C145.834 24.9639 144.684 23.1314 141.96 23.1314C139.576 23.1314 138.171 24.9207 138.043 27.2218V39.5336H138.043Z" fill="#FAFDFE"/>
<path d="M164.011 23.4298V39.5337H158.306V23.4298H154.815V18.5725H158.306V16.1872C158.306 11.4578 161.287 8.39038 165.927 8.39038C167.118 8.39038 168.268 8.6034 168.736 8.81641V13.5885C168.438 13.5033 167.885 13.3755 166.949 13.3755C165.714 13.3755 164.011 13.9293 164.011 16.2725V18.5725H178.017V39.5337H172.398V23.4298H164.011ZM175.207 8.13477C177.124 8.13477 178.699 9.71107 178.699 11.6708C178.699 13.5885 177.124 15.1217 175.207 15.1217C173.292 15.1217 171.717 13.5879 171.717 11.6708C171.717 9.71107 173.292 8.13477 175.207 8.13477Z" fill="#FAFDFE"/>
<path d="M196.876 24.1963C196.237 24.0685 195.684 24.0259 195.173 24.0259C192.278 24.0259 189.766 25.4323 189.766 29.9482V39.5339H184.104V18.5727H189.595V21.6833C190.873 18.9141 193.768 18.4028 195.555 18.4028C196.024 18.4028 196.45 18.4454 196.875 18.488V24.1963H196.876Z" fill="#FAFDFE"/>
<path d="M219.438 33.5268C218.374 37.1481 215.054 40.1729 209.902 40.1729C204.155 40.1729 199.089 36.0399 199.089 28.9678C199.089 22.2791 204.027 17.9336 209.391 17.9336C215.862 17.9336 219.736 22.0661 219.736 28.7973C219.736 29.6068 219.651 30.4589 219.651 30.5435H204.666C204.793 33.3127 207.135 35.3156 209.944 35.3156C212.584 35.3156 214.032 33.9949 214.713 32.1204L219.438 33.5268ZM214.16 26.6677C214.074 24.5797 212.712 22.5347 209.476 22.5347C206.539 22.5347 204.921 24.7501 204.793 26.6677H214.16Z" fill="#FAFDFE"/>
<path d="M42.2551 0.882812H6.52421C3.39578 0.882812 0.859619 3.42142 0.859619 6.5522V42.3099C0.859619 45.4407 3.39578 47.9788 6.52421 47.9788H42.2551C45.3835 47.9788 47.9202 45.4407 47.9202 42.3099V6.5522C47.9207 3.42088 45.3835 0.882812 42.2551 0.882812ZM35.2676 24.3581V27.7445C35.2676 29.1872 34.0974 30.3571 32.6569 30.3571H22.1169V39.6627H19.5062H16.1224C14.6808 39.6627 13.5128 38.4927 13.5128 37.0501V30.3577V24.7128V22.1007V21.7455H16.1224H32.6569H35.2676V24.3581ZM35.2676 11.8115V15.198C35.2676 16.6406 34.0974 17.8106 32.6569 17.8106H13.5128V15.198V11.8115C13.5128 10.3689 14.6808 9.19891 16.1224 9.19891H32.6569H35.2676V11.8115Z" fill="#FAFDFE"/>
</svg>
