<svg width="111" height="24" viewBox="0 0 111 24" fill="none" xmlns="http://www.w3.org/2000/svg">
<path d="M34.6395 13.8883V19.6849H31.6602V4.29175H37.3813C40.4038 4.29175 42.4119 6.31081 42.4119 9.09001C42.4119 11.8906 40.4041 13.8883 37.3813 13.8883H34.6395ZM37.014 11.3045C38.504 11.3045 39.4107 10.4361 39.4107 9.11173C39.4107 7.74397 38.504 6.89727 37.014 6.89727H34.6608V11.3045H37.014Z" fill="#F04B40"/>
<path d="M50.9607 18.5343C50.3778 19.5333 49.1469 19.9672 48.0243 19.9672C45.4551 19.9672 43.9871 18.0784 43.9871 15.7551V9.00293H46.8584V15.1689C46.8584 16.363 47.4629 17.3185 48.8015 17.3185C50.0755 17.3185 50.8093 16.4501 50.8093 15.2124V9.00293H53.6809V17.7525C53.6809 18.5775 53.7457 19.3156 53.7886 19.6847H51.0468C51.0036 19.4679 50.9607 18.9685 50.9607 18.5343Z" fill="#F04B40"/>
<path d="M58.301 16.1676C58.3657 17.0143 58.9918 17.7959 60.244 17.7959C61.1939 17.7959 61.6473 17.2965 61.6473 16.7321C61.6473 16.2542 61.3235 15.8636 60.5031 15.6897L59.0998 15.3643C57.0485 14.9081 56.1205 13.6709 56.1205 12.1726C56.1205 10.2621 57.8044 8.67725 60.0929 8.67725C63.1154 8.67725 64.1303 10.6095 64.2596 11.7601L61.8632 12.3029C61.7768 11.6733 61.3235 10.87 60.1145 10.87C59.3588 10.87 58.7543 11.3259 58.7543 11.9338C58.7543 12.4548 59.1429 12.7805 59.7261 12.8891L61.2374 13.2147C63.3318 13.6492 64.3897 14.9298 64.3897 16.493C64.3897 18.2298 63.0511 20.0103 60.2661 20.0103C57.0706 20.0103 55.9696 17.9259 55.8403 16.7103L58.301 16.1676Z" fill="#F04B40"/>
<path d="M69.5704 19.6849H66.6987V3.96631H69.5704V9.89324C70.2615 9.06824 71.427 8.72088 72.442 8.72088C75.1407 8.72088 76.3929 10.61 76.3929 12.9547V19.6852H73.5215V13.454C73.5215 12.2602 72.9386 11.3264 71.5569 11.3264C70.3479 11.3264 69.6354 12.2382 69.5706 13.4109V19.6849H69.5704Z" fill="#F04B40"/>
<path d="M82.7402 11.4784V19.6849H79.847V11.4784H78.0767V9.00312H79.847V7.78761C79.847 5.37749 81.3585 3.81434 83.7117 3.81434C84.316 3.81434 84.8989 3.9229 85.1364 4.03145V6.46328C84.9852 6.41986 84.7046 6.35473 84.2299 6.35473C83.6038 6.35473 82.7399 6.63696 82.7399 7.83103V9.00312H89.8428V19.6849H86.9936V11.4784H82.7402V11.4784ZM88.4182 3.68408C89.39 3.68408 90.1888 4.48737 90.1888 5.48604C90.1888 6.46328 89.39 7.24459 88.4182 7.24459C87.4467 7.24459 86.6479 6.46301 86.6479 5.48604C86.6479 4.48737 87.4467 3.68408 88.4182 3.68408Z" fill="#F04B40"/>
<path d="M99.4067 11.8688C99.0829 11.8037 98.8022 11.782 98.5432 11.782C97.0751 11.782 95.8013 12.4987 95.8013 14.8V19.6849H92.9297V9.00307H95.7147V10.5882C96.3624 9.17703 97.8307 8.9165 98.7372 8.9165C98.975 8.9165 99.1908 8.93822 99.4065 8.95993V11.8688H99.4067Z" fill="#F04B40"/>
<path d="M110.849 16.6235C110.309 18.4689 108.625 20.0103 106.013 20.0103C103.098 20.0103 100.529 17.9042 100.529 14.3002C100.529 10.8917 103.033 8.67725 105.754 8.67725C109.035 8.67725 111 10.7831 111 14.2134C111 14.6259 110.957 15.0601 110.957 15.1032H103.357C103.422 16.5144 104.61 17.5351 106.034 17.5351C107.373 17.5351 108.107 16.8621 108.453 15.9068L110.849 16.6235ZM108.172 13.1281C108.129 12.0641 107.438 11.022 105.797 11.022C104.307 11.022 103.487 12.1509 103.422 13.1281H108.172Z" fill="#F04B40"/>
<path d="M20.9931 0H2.87272C1.28618 0 0 1.29367 0 2.88911V21.1112C0 22.7066 1.28618 24 2.87272 24H20.9931C22.5797 24 23.8661 22.7066 23.8661 21.1112V2.88911C23.8664 1.29339 22.5797 0 20.9931 0ZM17.4495 11.963V13.6887C17.4495 14.4238 16.8561 15.02 16.1256 15.02H10.7803V19.7621H9.45637H7.74029C7.00922 19.7621 6.41687 19.1659 6.41687 18.4307V15.0203V12.1437V10.8126V10.6316H7.74029H16.1256H17.4495V11.963V11.963ZM17.4495 5.56925V7.29496C17.4495 8.03013 16.8561 8.62634 16.1256 8.62634H6.41687V7.29496V5.56925C6.41687 4.83409 7.00922 4.23786 7.74029 4.23786H16.1256H17.4495V5.56925Z" fill="#F04B40"/>
</svg>
